<svg xmlns="http://www.w3.org/2000/svg" xmlns:xlink="http://www.w3.org/1999/xlink" width="14px" height="14px">
    <path fill-rule="evenodd"  fill-opacity="0.502" fill="rgb(63, 105, 179)" d="M8.414,7.000 L13.364,11.950 C13.754,12.340 13.754,12.973 13.364,13.364 C12.973,13.754 12.340,13.754 11.950,13.364 L7.000,8.414 L2.050,13.364 C1.660,13.754 1.027,13.754 0.636,13.364 C0.246,12.973 0.246,12.340 0.636,11.950 L5.586,7.000 L0.636,2.050 C0.246,1.660 0.246,1.026 0.636,0.636 C1.027,0.245 1.660,0.245 2.050,0.636 L7.000,5.586 L11.950,0.636 C12.340,0.245 12.973,0.245 13.364,0.636 C13.754,1.026 13.754,1.660 13.364,2.050 L8.414,7.000 Z"/>
</svg>