<svg xmlns="http://www.w3.org/2000/svg" xmlns:xlink="http://www.w3.org/1999/xlink" width="26px" height="14px">
    <path fill-rule="evenodd"  fill="rgb(255, 255, 255)" d="M25.000,8.000 L1.000,8.000 C0.448,8.000 -0.000,7.552 -0.000,7.000 C-0.000,6.448 0.448,6.000 1.000,6.000 L25.000,6.000 C25.552,6.000 26.000,6.448 26.000,7.000 C26.000,7.552 25.552,8.000 25.000,8.000 ZM25.000,2.000 L1.000,2.000 C0.448,2.000 -0.000,1.552 -0.000,1.000 C-0.000,0.447 0.448,-0.000 1.000,-0.000 L25.000,-0.000 C25.552,-0.000 26.000,0.447 26.000,1.000 C26.000,1.552 25.552,2.000 25.000,2.000 ZM1.000,12.000 L25.000,12.000 C25.552,12.000 26.000,12.447 26.000,13.000 C26.000,13.552 25.552,14.000 25.000,14.000 L1.000,14.000 C0.448,14.000 -0.000,13.552 -0.000,13.000 C-0.000,12.447 0.448,12.000 1.000,12.000 Z"/>
</svg>